<svg xmlns="http://www.w3.org/2000/svg" viewBox="0 0 183.41 202.12"><defs><style>.cls-1{fill:none;stroke:#000;stroke-linecap:round;stroke-linejoin:round;stroke-width:4px;}</style></defs><g id="Layer_2" data-name="Layer 2"><g id="Layer_1-2" data-name="Layer 1"><path class="cls-1" d="M120.78,142.19v43.36l-14.34,14.57H77.74L63,185.55V142.19l-.3-.3a58,58,0,1,1,86.78-50.26,58.37,58.37,0,0,1-28.62,50.26Z"/><polyline class="cls-1" points="59.62 88.99 67.29 96.95 75.25 88.99 83.33 96.95 91.7 88.99 100.32 96.95 108.16 88.99 115.47 96.95 123.31 88.99"/><line class="cls-1" x1="83.39" y1="148.73" x2="83.39" y2="96.93"/><line class="cls-1" x1="100.26" y1="148.73" x2="100.26" y2="96.93"/><line class="cls-1" x1="62.83" y1="148.61" x2="120.69" y2="148.61"/><line class="cls-1" x1="62.71" y1="167.15" x2="120.93" y2="167.15"/><line class="cls-1" x1="62.95" y1="184.73" x2="120.69" y2="184.73"/><line class="cls-1" x1="19.82" y1="91.58" x2="2" y2="91.58"/><line class="cls-1" x1="181.41" y1="91.58" x2="163.58" y2="91.58"/><line class="cls-1" x1="91.58" y1="19.82" x2="91.58" y2="2"/><line class="cls-1" x1="29.8" y1="54.99" x2="14.36" y2="45.72"/><line class="cls-1" x1="153.37" y1="54.51" x2="169.29" y2="45.49"/><line class="cls-1" x1="124.14" y1="27.43" x2="133.64" y2="12.69"/><line class="cls-1" x1="58.55" y1="27.66" x2="49.52" y2="12.46"/></g></g></svg>